<?xml version="1.0" encoding="UTF-8"?>
<svg width="32px" height="32px" viewBox="0 0 32 32" version="1.1" xmlns="http://www.w3.org/2000/svg" xmlns:xlink="http://www.w3.org/1999/xlink" style="background: #323232;">
    <!-- Generator: Sketch 40.1 (33804) - http://www.bohemiancoding.com/sketch -->
    <title>favicon-svg</title>
    <desc>Created with Sketch.</desc>
    <defs></defs>
    <g id="Main-Pages" stroke="none" stroke-width="1" fill="none" fill-rule="evenodd">
        <g id="favicon" fill="#EC6608">
            <path d="M4.87751786,10.7231152 C4.87751786,10.7231152 5.56120429,7.78865163 7.3586138,7.78865163 C7.97241972,7.78865163 8.07030071,7.98630026 8.07030071,7.98630026 L8.07030071,26.6264943 L11.6122252,26.6264943 L11.6122252,15.3890332 C11.6122252,15.3890332 12.337229,12.9201183 13.4871159,12.5926088 C14.6370028,12.2650992 14.7701006,12.731063 14.7701006,12.731063 L14.7701006,26.6396563 L18.3322762,26.6396563 L18.3322762,23.6239588 C18.3322762,21.4152119 19.2178004,18.0792643 20.3171418,17.2276198 C20.3171418,17.2276198 19.2898049,17.3802293 20.3171418,17.2276198 C21.3444787,17.0750103 20.4549449,17.2094698 20.4549449,17.2094698 C20.9462209,17.3358953 21.3444787,17.8776063 21.3444787,18.4364762 L21.3444787,25.1944579 C21.3444787,25.1944579 21.463218,25.7976094 21.8772452,26.1730195 C22.2912724,26.5484296 25.4083721,26.9731373 27.0326387,25.5411588 C28.6569053,24.1091803 29,22.6202661 29,22.6202661 L28.1678261,21.9516542 C28.1678261,21.9516542 27.0373777,24.8412373 26.0257723,24.8730192 C25.014167,24.904801 25.8897387,24.8756588 25.8897387,24.8756588 C25.3766992,24.75135 24.9607986,24.2101487 24.9607986,23.6497439 L24.9607986,16.873203 C24.9607986,16.873203 24.9714696,15.3890332 22.5148048,15.3890332 C20.0581399,15.3890332 18.357482,17.5901166 18.357482,17.5901166 L18.357482,12.216295 C18.357482,12.216295 18.4033071,10.7867114 15.9667581,10.7231152 C13.5302091,10.6595189 11.6453118,13.0962085 11.6453118,13.0962085 L11.6453118,7.46228405 C11.6453118,7.46228405 11.4882275,5.53355778 8.32168567,6.10627143 C5.15514386,6.67898508 4,10.020777 4,10.020777 L4.87751786,10.7231152 Z" id="Path-2"></path>
        </g>
    </g>
</svg>