<?xml version="1.0" encoding="UTF-8" standalone="no"?>
<svg width="48px" height="48px" viewBox="0 0 48 48" version="1.1" xmlns="http://www.w3.org/2000/svg" xmlns:xlink="http://www.w3.org/1999/xlink">
    <!-- Generator: Sketch 39.1 (31720) - http://www.bohemiancoding.com/sketch -->
    <title>fb</title>
    <desc>Created with Sketch.</desc>
    <defs></defs>
    <g id="Symbols" stroke="none" stroke-width="1" fill="none" fill-rule="evenodd">
        <g id="Footer" transform="translate(-970.000000, -61.000000)">
            <g id="fb" transform="translate(970.000000, 61.000000)">
                <path d="M24,48 C37.254834,48 48,37.254834 48,24 C48,10.745166 37.254834,0 24,0 C10.745166,0 0,10.745166 0,24 C0,37.254834 10.745166,48 24,48 Z" id="Oval-2" fill="#FFFFFF"></path>
                <path d="M24.8191776,36 L13.3246158,36 C12.5928363,36 12,35.4067958 12,34.6753014 L12,13.3246055 C12,12.5929249 12.5929295,12 13.3246158,12 L34.6754774,12 C35.4069774,12 36,12.5929249 36,13.3246055 L36,34.6753014 C36,35.4068889 35.4068843,36 34.6754774,36 L28.5596526,36 L28.5596526,26.7058773 L31.6792606,26.7058773 L32.1463776,23.0837928 L28.5596526,23.0837928 L28.5596526,20.7713207 C28.5596526,19.7226437 28.8508558,19.0080048 30.3546448,19.0080048 L32.2726557,19.0071667 L32.2726557,15.7675453 C31.940943,15.7234042 30.8023918,15.6247851 29.477776,15.6247851 C26.7124171,15.6247851 24.8191776,17.3127631 24.8191776,20.4126044 L24.8191776,23.0837928 L21.6915609,23.0837928 L21.6915609,26.7058773 L24.8191776,26.7058773 L24.8191776,36 L24.8191776,36 Z" id="Facebook" fill="#F37021"></path>
            </g>
        </g>
    </g>
</svg>