<?xml version="1.0" encoding="UTF-8" standalone="no"?>
<svg width="48px" height="48px" viewBox="0 0 48 48" version="1.1" xmlns="http://www.w3.org/2000/svg" xmlns:xlink="http://www.w3.org/1999/xlink">
    <!-- Generator: Sketch 39.1 (31720) - http://www.bohemiancoding.com/sketch -->
    <title>instagram</title>
    <desc>Created with Sketch.</desc>
    <defs></defs>
    <g id="Symbols" stroke="none" stroke-width="1" fill="none" fill-rule="evenodd">
        <g id="Footer" transform="translate(-1038.000000, -61.000000)">
            <g id="instagram" transform="translate(1038.000000, 61.000000)">
                <circle id="Oval-2" fill="#FFFFFF" cx="24" cy="24" r="24"></circle>
                <path d="M24.0000238,13.5 C20.7409957,13.5 20.3323429,13.5138139 19.0524153,13.5722133 C17.7751553,13.6304697 16.9028324,13.8333433 16.139544,14.1300083 C15.3504379,14.4366288 14.6812268,14.8469487 14.014064,15.514064 C13.3469487,16.1812268 12.9366288,16.8504379 12.6300083,17.639544 C12.3333433,18.4028324 12.1304697,19.2751553 12.0722133,20.5524153 C12.0138139,21.8323429 12,22.2409957 12,25.5000238 C12,28.7590043 12.0138139,29.1676571 12.0722133,30.4475847 C12.1304697,31.7248447 12.3333433,32.5971676 12.6300083,33.360456 C12.9366288,34.1495621 13.3469487,34.8187732 14.014064,35.485936 C14.6812268,36.1530513 15.3504379,36.5633712 16.139544,36.8700394 C16.9028324,37.1666567 17.7751553,37.3695303 19.0524153,37.4277867 C20.3323429,37.4861861 20.7409957,37.5 24.0000238,37.5 C27.2590043,37.5 27.6676571,37.4861861 28.9475847,37.4277867 C30.2248447,37.3695303 31.0971676,37.1666567 31.860456,36.8700394 C32.6495621,36.5633712 33.3187732,36.1530513 33.985936,35.485936 C34.6530513,34.8187732 35.0633712,34.1495621 35.3700394,33.360456 C35.6666567,32.5971676 35.8695303,31.7248447 35.9277867,30.4475847 C35.9861861,29.1676571 36,28.7590043 36,25.5000238 C36,22.2409957 35.9861861,21.8323429 35.9277867,20.5524153 C35.8695303,19.2751553 35.6666567,18.4028324 35.3700394,17.639544 C35.0633712,16.8504379 34.6530513,16.1812268 33.985936,15.514064 C33.3187732,14.8469487 32.6495621,14.4366288 31.860456,14.1300083 C31.0971676,13.8333433 30.2248447,13.6304697 28.9475847,13.5722133 C27.6676571,13.5138139 27.2590043,13.5 24.0000238,13.5 Z M24.0000238,15.6621583 C27.2041299,15.6621583 27.5836782,15.6744003 28.8490298,15.7321328 C30.0190179,15.7854829 30.6544088,15.9809732 31.0772565,16.1453107 C31.6373856,16.3629984 32.0371308,16.6230329 32.4570251,17.0429749 C32.8769671,17.4628692 33.1370016,17.8626144 33.3546893,18.4227435 C33.5190268,18.8455912 33.7145171,19.4809821 33.7678672,20.6509702 C33.8255997,21.9163218 33.8378417,22.2958701 33.8378417,25.5000238 C33.8378417,28.7041299 33.8255997,29.0836782 33.7678672,30.3490298 C33.7145171,31.5190179 33.5190268,32.1544088 33.3546893,32.5772565 C33.1370016,33.1373856 32.8769671,33.5371308 32.4570251,33.9570251 C32.0371308,34.3769671 31.6373856,34.6370016 31.0772565,34.8546893 C30.6544088,35.0190268 30.0190179,35.2145171 28.8490298,35.2678672 C27.5838687,35.3255997 27.204368,35.3378417 24.0000238,35.3378417 C20.795632,35.3378417 20.4161789,35.3255997 19.1509702,35.2678672 C17.9809821,35.2145171 17.3455912,35.0190268 16.9227435,34.8546893 C16.3626144,34.6370016 15.9628692,34.3769671 15.5429749,33.9570251 C15.1230805,33.5371308 14.8629984,33.1373856 14.6453107,32.5772565 C14.4809732,32.1544088 14.2854829,31.5190179 14.2321328,30.3490298 C14.1744003,29.0836782 14.1621583,28.7041299 14.1621583,25.5000238 C14.1621583,22.2958701 14.1744003,21.9163218 14.2321328,20.6509702 C14.2854829,19.4809821 14.4809732,18.8455912 14.6453107,18.4227435 C14.8629984,17.8626144 15.1230329,17.4628692 15.5429749,17.0429749 C15.9628692,16.6230329 16.3626144,16.3629984 16.9227435,16.1453107 C17.3455912,15.9809732 17.9809821,15.7854829 19.1509702,15.7321328 C20.4163218,15.6744003 20.7958701,15.6621583 24.0000238,15.6621583 Z M24.0000238,19.3378417 C20.5967121,19.3378417 17.8378417,22.0967121 17.8378417,25.5000238 C17.8378417,28.9032879 20.5967121,31.6621583 24.0000238,31.6621583 C27.4032879,31.6621583 30.1621583,28.9032879 30.1621583,25.5000238 C30.1621583,22.0967121 27.4032879,19.3378417 24.0000238,19.3378417 Z M24.0000238,29.5 C21.7908507,29.5 20,27.7091493 20,25.5000238 C20,23.2908507 21.7908507,21.5 24.0000238,21.5 C26.2091493,21.5 28,23.2908507 28,25.5000238 C28,27.7091493 26.2091493,29.5 24.0000238,29.5 Z M31.8456418,19.0943839 C31.8456418,19.8896825 31.2009146,20.534362 30.4056161,20.534362 C29.6103652,20.534362 28.965638,19.8896825 28.965638,19.0943839 C28.965638,18.2990854 29.6103652,17.6543582 30.4056161,17.6543582 C31.2009146,17.6543582 31.8456418,18.2990854 31.8456418,19.0943839 Z" id="Instagram" fill="#F37021"></path>
            </g>
        </g>
    </g>
</svg>