<?xml version="1.0" encoding="UTF-8" standalone="no"?>
<svg width="48px" height="48px" viewBox="0 0 48 48" version="1.1" xmlns="http://www.w3.org/2000/svg" xmlns:xlink="http://www.w3.org/1999/xlink">
    <!-- Generator: Sketch 39.1 (31720) - http://www.bohemiancoding.com/sketch -->
    <title>Twitter</title>
    <desc>Created with Sketch.</desc>
    <defs></defs>
    <g id="Symbols" stroke="none" stroke-width="1" fill="none" fill-rule="evenodd">
        <g id="Footer" transform="translate(-1106.000000, -61.000000)">
            <g id="Twitter" transform="translate(1106.000000, 61.000000)">
                <circle id="Oval-2" fill="#FFFFFF" cx="24" cy="24" r="24"></circle>
                <path d="M36,17.3676417 C35.1181546,17.7692308 34.1686917,18.040809 33.1727417,18.1621524 C34.1898222,17.5381004 34.9702412,16.5485735 35.3379116,15.3698086 C34.3856313,15.9476345 33.3333333,16.3680029 32.2091918,16.593355 C31.3132594,15.6124955 30.0327522,15 28.6156013,15 C25.8982215,15 23.693608,17.260744 23.693608,20.0487541 C23.693608,20.4445648 23.735869,20.8288191 23.8203909,21.1986277 C19.7281211,20.9877212 16.100722,18.9797761 13.6707167,15.9216324 C13.2466984,16.6699169 13.0044022,17.5381004 13.0044022,18.4626219 C13.0044022,20.2134345 13.8735693,21.7591188 15.1949287,22.664861 C14.389153,22.6403034 13.6284557,22.4106176 12.9635499,22.0350307 L12.9635499,22.097147 C12.9635499,24.5442398 14.6610319,26.5854099 16.9149498,27.0476706 C16.5022011,27.166125 16.0669132,27.2253521 15.6175383,27.2253521 C15.3005811,27.2253521 14.9906674,27.1950163 14.6906145,27.1357891 C15.3174855,29.1408451 17.1347068,30.6013001 19.2900158,30.6403034 C17.6052122,31.9953052 15.4808945,32.8028169 13.1748547,32.8028169 C12.7776017,32.8028169 12.3845747,32.7797039 12,32.7334778 C14.1792569,34.163597 16.7684451,35 19.5478077,35 C28.6057404,35 33.5573164,27.3076923 33.5573164,20.6352474 C33.5573164,20.4156735 33.5530903,20.1960997 33.5446381,19.9808595 C34.5067794,19.2686891 35.3421377,18.3802817 36,17.3676417" fill="#F37021"></path>
            </g>
        </g>
    </g>
</svg>